<svg width="54" height="28" viewBox="0 0 54 28" fill="none" xmlns="http://www.w3.org/2000/svg">
<path d="M18.22 16.51H12.6L11.9 14.18H6.12L5.42 16.51H0L6.02 0H12.19L18.22 16.51ZM8.98 4.61L7.22 10.49H10.8L9.07 4.61H8.98ZM35.88 5.06C35.88 6.07333 35.6067 6.98667 35.06 7.8C34.52 8.61333 33.73 9.21333 32.69 9.6L36.36 16.51H30.41L27.48 10.49H25.51V16.51H20.21V0H30.31C31.4967 0 32.51 0.226667 33.35 0.68C34.19 1.14 34.82 1.75667 35.24 2.53C35.6667 3.31 35.88 4.15333 35.88 5.06ZM30.48 5.28C30.48 4.84667 30.3367 4.48667 30.05 4.2C29.7633 3.91333 29.41 3.77 28.99 3.77H25.51V6.82H28.99C29.41 6.82 29.7633 6.67 30.05 6.37C30.3367 6.07667 30.48 5.71333 30.48 5.28ZM53.57 4.22H48.17V16.51H42.86V4.22H37.44V0H53.57V4.22Z" fill="#638404"/>
<path d="M16.0704 26.512H37.4976" stroke="#638404" stroke-linecap="round"/>
</svg>
