<svg width="50" height="50" viewBox="0 0 50 50" fill="none" xmlns="http://www.w3.org/2000/svg">
<path d="M25 12.5C27.2917 12.5 29.1667 14.375 29.1667 16.6667C29.1667 18.9584 27.2917 20.8334 25 20.8334C22.7083 20.8334 20.8333 18.9584 20.8333 16.6667C20.8333 14.375 22.7083 12.5 25 12.5ZM25 33.3334C30.625 33.3334 37.0833 36.0209 37.5 37.5H12.5C12.9792 36 19.3958 33.3334 25 33.3334ZM25 8.33337C20.3958 8.33337 16.6667 12.0625 16.6667 16.6667C16.6667 21.2709 20.3958 25 25 25C29.6042 25 33.3333 21.2709 33.3333 16.6667C33.3333 12.0625 29.6042 8.33337 25 8.33337ZM25 29.1667C19.4375 29.1667 8.33333 31.9584 8.33333 37.5V41.6667H41.6667V37.5C41.6667 31.9584 30.5625 29.1667 25 29.1667Z" fill="#27364B"/>
</svg>
