<svg width="90" height="32" viewBox="0 0 75 17" fill="none" xmlns="http://www.w3.org/2000/svg">
<path d="M19.666 8.54883H17.6621V12H16.5312V3.46875H19.3555C20.3164 3.46875 21.0547 3.6875 21.5703 4.125C22.0898 4.5625 22.3496 5.19922 22.3496 6.03516C22.3496 6.56641 22.2051 7.0293 21.916 7.42383C21.6309 7.81836 21.2324 8.11328 20.7207 8.30859L22.7246 11.9297V12H21.5176L19.666 8.54883ZM17.6621 7.62891H19.3906C19.9492 7.62891 20.3926 7.48438 20.7207 7.19531C21.0527 6.90625 21.2188 6.51953 21.2188 6.03516C21.2188 5.50781 21.0605 5.10352 20.7441 4.82227C20.4316 4.54102 19.9785 4.39844 19.3848 4.39453H17.6621V7.62891ZM26.3926 12.1172C25.5332 12.1172 24.834 11.8359 24.2949 11.2734C23.7559 10.707 23.4863 9.95117 23.4863 9.00586V8.80664C23.4863 8.17773 23.6055 7.61719 23.8438 7.125C24.0859 6.62891 24.4219 6.24219 24.8516 5.96484C25.2852 5.68359 25.7539 5.54297 26.2578 5.54297C27.082 5.54297 27.7227 5.81445 28.1797 6.35742C28.6367 6.90039 28.8652 7.67773 28.8652 8.68945V9.14062H24.5703C24.5859 9.76562 24.7676 10.2715 25.1152 10.6582C25.4668 11.041 25.9121 11.2324 26.4512 11.2324C26.834 11.2324 27.1582 11.1543 27.4238 10.998C27.6895 10.8418 27.9219 10.6348 28.1211 10.377L28.7832 10.8926C28.252 11.709 27.4551 12.1172 26.3926 12.1172ZM26.2578 6.43359C25.8203 6.43359 25.4531 6.59375 25.1562 6.91406C24.8594 7.23047 24.6758 7.67578 24.6055 8.25H27.7812V8.16797C27.75 7.61719 27.6016 7.19141 27.3359 6.89062C27.0703 6.58594 26.7109 6.43359 26.2578 6.43359ZM33.8164 10.3184C33.8164 10.0254 33.7051 9.79883 33.4824 9.63867C33.2637 9.47461 32.8789 9.33398 32.3281 9.2168C31.7812 9.09961 31.3457 8.95898 31.0215 8.79492C30.7012 8.63086 30.4629 8.43555 30.3066 8.20898C30.1543 7.98242 30.0781 7.71289 30.0781 7.40039C30.0781 6.88086 30.2969 6.44141 30.7344 6.08203C31.1758 5.72266 31.7383 5.54297 32.4219 5.54297C33.1406 5.54297 33.7227 5.72852 34.168 6.09961C34.6172 6.4707 34.8418 6.94531 34.8418 7.52344H33.752C33.752 7.22656 33.625 6.9707 33.3711 6.75586C33.1211 6.54102 32.8047 6.43359 32.4219 6.43359C32.0273 6.43359 31.7188 6.51953 31.4961 6.69141C31.2734 6.86328 31.1621 7.08789 31.1621 7.36523C31.1621 7.62695 31.2656 7.82422 31.4727 7.95703C31.6797 8.08984 32.0527 8.2168 32.5918 8.33789C33.1348 8.45898 33.5742 8.60352 33.9102 8.77148C34.2461 8.93945 34.4941 9.14258 34.6543 9.38086C34.8184 9.61523 34.9004 9.90234 34.9004 10.2422C34.9004 10.8086 34.6738 11.2637 34.2207 11.6074C33.7676 11.9473 33.1797 12.1172 32.457 12.1172C31.9492 12.1172 31.5 12.0273 31.1094 11.8477C30.7188 11.668 30.4121 11.418 30.1895 11.0977C29.9707 10.7734 29.8613 10.4238 29.8613 10.0488H30.9453C30.9648 10.4121 31.1094 10.7012 31.3789 10.916C31.6523 11.127 32.0117 11.2324 32.457 11.2324C32.8672 11.2324 33.1953 11.1504 33.4414 10.9863C33.6914 10.8184 33.8164 10.5957 33.8164 10.3184ZM40.2266 11.373C39.8047 11.8691 39.1855 12.1172 38.3691 12.1172C37.6934 12.1172 37.1777 11.9219 36.8223 11.5312C36.4707 11.1367 36.293 10.5547 36.2891 9.78516V5.66016H37.373V9.75586C37.373 10.7168 37.7637 11.1973 38.5449 11.1973C39.373 11.1973 39.9238 10.8887 40.1973 10.2715V5.66016H41.2812V12H40.25L40.2266 11.373ZM43.9531 5.66016L43.9824 6.36328C44.4473 5.81641 45.0742 5.54297 45.8633 5.54297C46.75 5.54297 47.3535 5.88281 47.6738 6.5625C47.8848 6.25781 48.1582 6.01172 48.4941 5.82422C48.834 5.63672 49.2344 5.54297 49.6953 5.54297C51.0859 5.54297 51.793 6.2793 51.8164 7.75195V12H50.7324V7.81641C50.7324 7.36328 50.6289 7.02539 50.4219 6.80273C50.2148 6.57617 49.8672 6.46289 49.3789 6.46289C48.9766 6.46289 48.6426 6.58398 48.377 6.82617C48.1113 7.06445 47.957 7.38672 47.9141 7.79297V12H46.8242V7.8457C46.8242 6.92383 46.373 6.46289 45.4707 6.46289C44.7598 6.46289 44.2734 6.76562 44.0117 7.37109V12H42.9277V5.66016H43.9531ZM56.0879 12.1172C55.2285 12.1172 54.5293 11.8359 53.9902 11.2734C53.4512 10.707 53.1816 9.95117 53.1816 9.00586V8.80664C53.1816 8.17773 53.3008 7.61719 53.5391 7.125C53.7812 6.62891 54.1172 6.24219 54.5469 5.96484C54.9805 5.68359 55.4492 5.54297 55.9531 5.54297C56.7773 5.54297 57.418 5.81445 57.875 6.35742C58.332 6.90039 58.5605 7.67773 58.5605 8.68945V9.14062H54.2656C54.2812 9.76562 54.4629 10.2715 54.8105 10.6582C55.1621 11.041 55.6074 11.2324 56.1465 11.2324C56.5293 11.2324 56.8535 11.1543 57.1191 10.998C57.3848 10.8418 57.6172 10.6348 57.8164 10.377L58.4785 10.8926C57.9473 11.709 57.1504 12.1172 56.0879 12.1172ZM55.9531 6.43359C55.5156 6.43359 55.1484 6.59375 54.8516 6.91406C54.5547 7.23047 54.3711 7.67578 54.3008 8.25H57.4766V8.16797C57.4453 7.61719 57.2969 7.19141 57.0312 6.89062C56.7656 6.58594 56.4062 6.43359 55.9531 6.43359Z" fill="#2563EB"/>
<path d="M65.0833 4.25L64.0846 5.24875L67.3287 8.5L64.0846 11.7512L65.0833 12.75L69.3333 8.5L65.0833 4.25Z" fill="#2563EB"/>
</svg>
